<?xml version="1.0" encoding="UTF-8"?><svg id="Capa_1" xmlns="http://www.w3.org/2000/svg" viewBox="0 0 765 158"><defs><style>.cls-1{fill:#fff;}</style></defs><path class="cls-1" d="M40.87,53.02l-25.69-.07v25.43h25.66l-.03,64.8h25.43V78.45c0-14.02-11.35-25.4-25.37-25.43Z"/><g><path class="cls-1" d="M79.53,52.83h24.69v11.99c7.01-9.22,16.6-13.84,27.85-13.84,18.82,0,29.6,12.17,29.6,32.47v59.77h-25.36v-53.87c0-10.15-4.98-15.86-15.13-15.86-9.59,0-16.23,6.09-16.23,15.5v54.23h-25.43V52.83Z"/><path class="cls-1" d="M511.76,50.99c-11.06,0-23.65,6.57-30.74,15.55-4.87-9.94-14.49-15.55-27.25-15.55-11.25,0-20.85,4.61-27.85,13.84v-11.99h-24.69v90.39h25.43v-54.23c0-9.41,6.64-15.5,16.23-15.5,10.15,0,16.3,5.72,16.3,15.86v53.87h25.46v-54.23c0-9.41,6.64-15.5,16.23-15.5,10.15,0,16.26,5.72,16.26,15.86v53.87h25.43v-59.77c0-20.29-11.99-32.47-30.81-32.47Z"/><path class="cls-1" d="M226.02,117.79v25.43l-25.68-.07c-14.02-.03-25.37-11.41-25.37-25.44V27.68h25.43v25.4s25.5,0,25.5,0v25.53h-25.51l-.02,39.18h25.66Z"/><path class="cls-1" d="M235.51,98.02c0-30.25,19.55-47.04,47.41-47.04s44.46,16.97,44.46,45.01c0,3.87-.18,7.19-.55,8.85h-66.22c1.29,13.1,9.41,20.48,21.21,20.48,10.7,0,17.16-5.35,19.92-11.99l23.06,4.43c-4.24,14.94-18.26,27.3-42.98,27.3-27.67,0-46.3-16.79-46.3-47.04Zm67.52-9.59c-.92-9.78-7.93-17.71-20.11-17.71s-19.92,6.64-21.95,17.71h42.06Z"/><path class="cls-1" d="M338.77,78.45v64.73s25.43,0,25.43,0l-.03-64.8h25.66s0-25.43,0-25.43l-25.69,.07c-14.02,.04-25.37,11.41-25.37,25.43Z"/><path class="cls-1" d="M623.81,53.08v10.91c-.61-.71-1.03-1.22-1.47-1.72-3.7-4.18-8.16-7.24-13.44-9.11-7.17-2.54-14.51-2.77-21.87-1.21-13.44,2.85-22.98,10.68-28.55,23.18-5.12,11.51-5.54,23.51-3.02,35.67,1.78,8.56,5.64,16.11,11.99,22.21,6.88,6.62,15.25,10.01,24.7,10.74,12.05,.93,22.47-2.48,30.59-11.8,.3-.35,.62-.67,1.06-1.12v12.33h25.52V53.08h-25.52Zm-1.62,48.25c-.37,4.67-1.57,9.05-4.11,13.03-5.73,9-15.69,11.19-24.49,8.58-8.44-2.5-12.87-8.8-14.79-17.04-.61-2.65-.76-5.39-1.13-8.1,.27-6.62,1.74-12.71,5.68-18.17,8.02-11.11,28.29-11.61,35.77,3.35,2.91,5.8,3.57,11.97,3.06,18.35Z"/><path class="cls-1" d="M660.72,119.79l23.8-4.8c2.4,7.38,9.04,11.25,22.32,11.25s18.45-2.77,18.45-7.93c0-6.19-9.92-8.19-13.39-8.7-1.48-.22-2.97-.44-4.45-.68l-12.78-2.06c-20.85-3.5-30.44-10.51-30.44-26.93s15.13-28.96,41.69-28.96c22.87,0,38.74,9.22,42.8,25.27l-23.06,4.61c-2.58-6.64-8.67-11.25-20.11-11.25s-16.97,3.32-16.97,8.49,4.06,6.27,14.02,7.93l16.05,2.58c21.03,3.5,31.18,11.25,31.18,27.85,0,17.52-15.5,28.59-43.35,28.59-25.46,0-41.32-7.75-45.75-25.27Z"/></g><circle class="cls-1" cx="53.47" cy="27.68" r="14.75"/></svg>