<?xml version="1.0" encoding="UTF-8" standalone="no" ?>
<!DOCTYPE svg PUBLIC "-//W3C//DTD SVG 1.1//EN" "http://www.w3.org/Graphics/SVG/1.1/DTD/svg11.dtd">
<svg xmlns="http://www.w3.org/2000/svg" xmlns:xlink="http://www.w3.org/1999/xlink" version="1.1" width="500" height="500" viewBox="0 0 500 500" xml:space="preserve">
<desc>Created with Fabric.js 5.3.0</desc>
<defs>
</defs>
<g transform="matrix(1.3586179366 0 0 1.3586179452 250 250)" id="aZSHzb0qsjy68ZoLiZ0Kf"  >
<g style=""   >
		<g transform="matrix(1 0 0 1 -19.3425025542 -142.6977431754)" id="80ktw6OAIiLvqkrznE_i2"  >
<path style="stroke: none; stroke-width: 1; stroke-dasharray: none; stroke-linecap: butt; stroke-dashoffset: 0; stroke-linejoin: miter; stroke-miterlimit: 4; fill: rgb(33,172,227); fill-rule: nonzero; opacity: 1;"  transform=" translate(-233.6535866217, -91.2789647429)" d="M 104.12 118.88 Q 134.66 92.38 173.08 77.6 Q 215.59 61.25 260.03 64.9 Q 301.88 68.33 336.93 91.67 Q 349.13 99.79 360.33 112.05 Q 362.61 114.54 363.72 116.54 Q 364.03 117.1 363.48 116.77 Q 306.47 82.03 240.28 84.26 Q 216.89 85.05 193.5 90.26 Q 161.46 97.39 132.27 108.93 Q 112.18 116.87 104.39 119.36 Q 103.09 119.77 104.12 118.88 Z" stroke-linecap="round" />
</g>
		<g transform="matrix(1 0 0 1 -19.532169697 -29.1517062941)" id="2Qy_Ttl8ckvAx4iylO9N5"  >
<path style="stroke: none; stroke-width: 1; stroke-dasharray: none; stroke-linecap: butt; stroke-dashoffset: 0; stroke-linejoin: miter; stroke-miterlimit: 4; fill: rgb(33,172,227); fill-rule: nonzero; opacity: 1;"  transform=" translate(-233.4639194789, -204.8250016242)" d="M 329.76 205.09 Q 331.18 206.64 332.62 208.38 C 352.1 231.85 343.1 266.58 314.87 277.87 Q 306.88 281.06 296.76 280.93 Q 286.34 280.79 226.37 280.87 C 226.05519769259647 280.87 225.8 280.6103251549019 225.8 280.29 L 225.8 153.51 C 225.8 153.30047897302674 225.71676809611134 153.09953938183656 225.56861435713736 152.95138564286262 C 225.42046061816342 152.80323190388867 225.21952102697324 152.72 225.01 152.72 L 194.9 152.72 C 194.6901317950643 152.72 194.52 152.8901317950643 194.52 153.1 L 194.52 280.3 C 194.52 280.44852123431014 194.4610001693954 280.5909594255336 194.35597979746447 280.6959797974645 C 194.25095942553358 280.80100016939537 194.10852123431016 280.86 193.96 280.86 L 171.05 280.86 C 170.89617443589307 280.86 170.74864916641167 280.79994660099175 170.63987806691182 280.69305086527635 C 170.53110696741194 280.58615512956095 170.47 280.44117339920854 170.47 280.29 L 170.47 153.34 C 170.47 152.99758345510492 170.18793939239342 152.72 169.84 152.72 L 124.56 152.72 C 124.3876092816043 152.72 124.22227923821997 152.6515180537625 124.10038059222875 152.52961940777126 C 123.97848194623752 152.40772076178004 123.91 152.2423907183957 123.91 152.07 L 123.91 129.24 Q 123.91 128.68 124.47 128.68 Q 169.02 128.69 300 128.68 Q 310.94 128.68 320.98 134.56 C 335.79 143.23 344.01 158.81 342.87 175.97 Q 341.79 192.08 329.78 204.21 Q 329.35 204.64 329.76 205.09 Z M 250.16 153.23 L 250.16 192.17 C 250.16 192.31056473961493 250.21583912539367 192.4453723134514 250.31523340597113 192.54476659402886 C 250.41462768654858 192.6441608746063 250.54943526038505 192.7 250.69 192.7 L 298.43 192.7 C 309.72422313403973 192.7 318.88 183.75464930161922 318.88 172.72 L 318.88 172.68 C 318.88 161.64535069838075 309.72422313403973 152.7 298.43 152.7 L 250.69 152.7 C 250.54943526038505 152.7 250.41462768654858 152.75583912539366 250.31523340597113 152.85523340597112 C 250.21583912539367 152.95462768654858 250.16 153.08943526038505 250.16 153.23 Z M 250.18 217.24 L 250.12 255.94 C 250.12 256.33212217237985 250.43787782762016 256.65 250.83 256.65 L 298.1 256.73 C 303.6034393500027 256.7409058180494 308.88567324994955 254.64091254560378 312.78458913508086 250.89202709376272 C 316.68350502021224 247.14314164192166 318.8796991354929 242.0524770969359 318.89 236.74 L 318.89 236.68 C 318.90032050729445 231.36622829947171 316.72284014946945 226.26600208097258 312.83682969042314 222.5018983206898 C 308.95081923137684 218.73779456040705 303.67478503291164 216.618327866515 298.17 216.61 L 250.9 216.53 C 250.7099696558835 216.5273232498339 250.5267987029127 216.6009432540318 250.39147718102626 216.73438531033648 C 250.2561556591398 216.8678273666412 250.1799811487052 217.04995080552362 250.18 217.24 Z" stroke-linecap="round" />
</g>
		<g transform="matrix(1 0 0 1 132.7219761645 102.3609396511)" id="431bc5WVb1CYDHHl4I1rD"  >
<path style="stroke: none; stroke-width: 1; stroke-dasharray: none; stroke-linecap: butt; stroke-dashoffset: 0; stroke-linejoin: miter; stroke-miterlimit: 4; fill: rgb(35,31,32); fill-rule: nonzero; opacity: 1;"  transform=" translate(-385.7180653404, -336.3376475694)" d="M 385.72 368.38 C 378.01 368.38 369.3 369.91 369.16 360.01 Q 369.01 348.99 369.08 304.59 C 369.08000000000004 304.3856546425626 369.2456546425626 304.22 369.45 304.22 L 381.77 304.22 C 382.0682337649086 304.22 382.31 304.4617662350914 382.31 304.76 L 382.31 356.07 C 382.30996851466574 356.5466094270389 382.6934220572554 356.9345217317517 383.17 356.94 Q 384.12 356.96 385.72 356.96 Q 387.32 356.96 388.27 356.94 C 388.7465779427446 356.9345217317517 389.13003148533426 356.5466094270389 389.13 356.07 L 389.11 304.76 C 389.11 304.4617662350914 389.35176623509136 304.22 389.65 304.22 L 401.97 304.21 C 402.1743453574374 304.21000000000004 402.34 304.3756546425626 402.34 304.58 Q 402.43 348.98 402.28 360 C 402.15 369.9 393.44 368.38 385.72 368.38 Z" stroke-linecap="round" />
</g>
		<g transform="matrix(1 0 0 1 -166.6910891759 102.3306793693)" id="As-BGIkILWcsbZKXfWn3K"  >
<path style="stroke: none; stroke-width: 1; stroke-dasharray: none; stroke-linecap: butt; stroke-dashoffset: 0; stroke-linejoin: miter; stroke-miterlimit: 4; fill: rgb(35,31,32); fill-rule: nonzero; opacity: 1;"  transform=" translate(-86.305, -336.3073872876)" d="M 86.33 304.21 Q 92.09 304.22 97.81 304.29 Q 98.38 304.3 98.52 304.85 L 101.27 315.75 C 101.3065719255331 315.90102479558004 101.27229604161892 316.060483978575 101.17689592324122 316.1831412736321 C 101.08149580486352 316.3057985686891 100.93538019892418 316.3782713012201 100.78 316.38 L 93.47 316.38 C 93.30556577629947 316.38 93.14786635030212 316.44532124102653 93.03159379566434 316.56159379566435 C 92.91532124102655 316.6778663503021 92.85 316.83556577629946 92.85 317 L 92.85 367.69 Q 92.85 368.26 92.29 368.28 Q 89.7 368.41 86.21 368.41 Q 82.71 368.4 80.12 368.26 Q 79.56 368.23 79.56 367.66 L 79.76 316.97 C 79.76 316.8055657762995 79.69467875897345 316.64786635030214 79.57840620433566 316.5315937956644 C 79.46213364969788 316.41532124102656 79.30443422370053 316.35 79.14 316.35 L 71.83 316.32 C 71.67461980107582 316.3182713012201 71.52850419513648 316.2457985686891 71.43310407675878 316.1231412736321 C 71.33770395838108 316.000483978575 71.3034280744669 315.84102479558004 71.34 315.69 L 74.13 304.8 Q 74.28 304.25 74.85 304.25 Q 80.57 304.2 86.33 304.21 Z" stroke-linecap="round" />
</g>
		<g transform="matrix(1 0 0 1 -136.7710891759 102.3232920817)" id="zXHzmzO33G4mO55DeM1qI"  >
<path style="stroke: none; stroke-width: 1; stroke-dasharray: none; stroke-linecap: butt; stroke-dashoffset: 0; stroke-linejoin: miter; stroke-miterlimit: 4; fill: rgb(35,31,32); fill-rule: nonzero; opacity: 1;"  transform=" translate(-116.225, -336.3)" d="M 116.23 304.21 Q 119.48 304.21 122.72 304.26 Q 123.18 304.27 123.27 304.73 L 134.69 368.02 C 134.70781724269423 368.1102719854507 134.68461187855362 368.20379413469686 134.62666159156169 368.27526615532025 C 134.56871130456975 368.34673817594364 134.48200533033236 368.3887733440303 134.39 368.39 L 122.19 368.39 Q 121.54 368.39 121.45 367.74 L 120.62 361.38 Q 120.52 360.59 119.73 360.59 Q 119.34 360.58 116.23 360.58 Q 113.11 360.58 112.72 360.59 Q 111.93 360.59 111.83 361.38 L 111 367.74 Q 110.91 368.39 110.26 368.39 L 98.06 368.39 C 97.96799466966762 368.3887733440303 97.88128869543026 368.34673817594364 97.82333840843833 368.27526615532025 C 97.76538812144639 368.20379413469686 97.74218275730577 368.1102719854507 97.76 368.02 L 109.19 304.73 Q 109.28 304.27 109.74 304.26 Q 112.98 304.21 116.23 304.21 Z M 116.23 350.24 Q 117.34 350.25 118.42 350.09 Q 118.91 350.01 118.86 349.51 Q 116.6 329.69 116.32 329.69 Q 116.04 329.69 113.61 349.49 Q 113.56 349.99 114.05 350.07 Q 115.13 350.24 116.23 350.24 Z" stroke-linecap="round" />
</g>
		<g transform="matrix(1 0 0 1 -97.8497034211 102.320925343)" id="4Kpis5y9jZgvCmCccL11O"  >
<path style="stroke: none; stroke-width: 1; stroke-dasharray: none; stroke-linecap: butt; stroke-dashoffset: 0; stroke-linejoin: miter; stroke-miterlimit: 4; fill: rgb(35,31,32); fill-rule: nonzero; opacity: 1;"  transform=" translate(-155.1463857548, -336.2976332613)" d="M 166.27 348.11 Q 165.55 348.28 165.78 348.98 L 172.06 367.98 Q 172.2 368.39 171.76 368.39 L 159.18 368.39 Q 158.62 368.39 158.45 367.85 Q 156.09 360.14 153.33 350.95 Q 152.8 349.2 152.29 348.24 C 152.21477888946126 348.09684087105956 152.07124138932727 348.0024083051819 151.91 347.99 Q 151.2 347.92 151.18 348.69 Q 151.13 350.9 151.02 367.89 Q 151.02 368.4 150.5 368.4 L 138.79 368.4 Q 138.15 368.4 138.15 367.77 L 138.15 304.73 C 138.15 304.60534824977543 138.19951771497173 304.4858019107129 138.28765981284232 304.39765981284233 C 138.3758019107129 304.3095177149717 138.49534824977542 304.26 138.62 304.26 Q 150.01 304.19 161.01 304.2 C 163.61 304.21 166.28 304.38 168.27 305.83 Q 171.18 307.96 171.19 311.76 Q 171.24 339.32 171.29 341.25 Q 171.46 346.9 166.27 348.11 Z M 151.07 316.26 L 151.07 337.1 C 151.07000000000002 337.3595738324205 151.28042616757952 337.57 151.54 337.57 L 156.25 337.57 C 156.79634596906945 337.57 157.32031502964134 337.35296490884724 157.7066399692443 336.9666399692443 C 158.09296490884725 336.5803150296413 158.31 336.05634596906947 158.31 335.51 L 158.31 317.85 C 158.31 317.30365403093055 158.09296490884725 316.7796849703587 157.7066399692443 316.39336003075573 C 157.32031502964134 316.0070350911528 156.79634596906945 315.79 156.25 315.79 L 151.54 315.79 C 151.28042616757952 315.79 151.07000000000002 316.0004261675795 151.07 316.26 Z" stroke-linecap="round" />
</g>
		<g transform="matrix(1 0 0 1 -60.1501391759 102.3159912748)" id="LpmtfqgZzpWvq0-OSA--t"  >
<path style="stroke: none; stroke-width: 1; stroke-dasharray: none; stroke-linecap: butt; stroke-dashoffset: 0; stroke-linejoin: miter; stroke-miterlimit: 4; fill: rgb(35,31,32); fill-rule: nonzero; opacity: 1;"  transform=" translate(-192.84595, -336.2926991931)" d="M 189.34 352.11 L 189.34 367.91 Q 189.34 368.41 188.84 368.41 L 176.8 368.41 C 176.699217733861 368.41 176.60256324695936 368.37101796906484 176.5312994231491 368.30162950903906 C 176.46003559933885 368.2322410490133 176.42 368.1381301012407 176.42 368.04 L 176.42 304.7 C 176.42000000000002 304.4349033200812 176.63938047258293 304.22 176.91 304.22 Q 189.07 304.22 201.02 304.18 Q 206.63 304.15 208.47 308.13 Q 209.28 309.88 209.27 315.47 Q 209.24 326.61 209.25 337.6 Q 209.26 344.53 209.09 345.4 Q 208.11 350.44 202.82 351.31 C 199.78 351.81 194.92 351.59 189.9 351.55 Q 189.34 351.55 189.34 352.11 Z M 196.5396 316.5437 C 196.5392555296521 316.3527440313325 196.46306804413038 316.16974599690843 196.32779798676097 316.0349635343666 C 196.1925279293916 315.9001810718249 196.00925596754345 315.82465490712974 195.8183 315.825 L 190.0383 315.8351 C 189.6406938302728 315.83581734788595 189.31893667486483 316.15869373647683 189.3196 316.5563 L 189.3604 339.9563 C 189.3607444703479 340.1472559686675 189.43693195586962 340.33025400309157 189.57220201323904 340.4650364656334 C 189.70747207060842 340.5998189281751 189.89074403245655 340.67534509287026 190.0817 340.675 L 195.8617 340.6649 C 196.2593061697272 340.66418265211405 196.58106332513518 340.34130626352317 196.5804 339.9437 L 196.5396 316.5437 Z" stroke-linecap="round" />
</g>
		<g transform="matrix(1 0 0 1 -22.1760891759 102.3132920817)" id="2L4OBU2a5lsrdA1JjgYch"  >
<path style="stroke: none; stroke-width: 1; stroke-dasharray: none; stroke-linecap: butt; stroke-dashoffset: 0; stroke-linejoin: miter; stroke-miterlimit: 4; fill: rgb(35,31,32); fill-rule: nonzero; opacity: 1;"  transform=" translate(-230.82, -336.29)" d="M 247.5227 360.7509 C 247.52620391156583 362.7585897584739 246.73201108491108 364.68544136113076 245.31483551975955 366.1075678889808 C 243.89765995460803 367.52969441683075 241.97358976911855 368.3306021929708 239.9659 368.3341 L 221.786 368.3658 C 219.7783102415261 368.36930391156585 217.85145863886925 367.5751110849111 216.42933211101922 366.1579355197596 C 215.00720558316922 364.74075995460805 214.20629780702916 362.81668976911857 214.2028 360.809 L 214.1173 311.8291 C 214.11379608843416 309.82141024152605 214.9079889150889 307.8945586388692 216.32516448024043 306.4724321110192 C 217.74234004539196 305.0503055831692 219.66641023088147 304.24939780702914 221.6741 304.2459 L 239.854 304.2142 C 241.86168975847391 304.21069608843413 243.78854136113077 305.00488891508894 245.2106678889808 306.42206448024046 C 246.6327944168308 307.839240045392 247.43370219297083 309.7633102308815 247.4372 311.771 L 247.5227 360.7509 Z M 234.36 317.04 C 234.36 316.73234887178614 234.23778606517612 316.43729833282333 234.0202438661764 316.2197561338236 C 233.80270166717668 316.0022139348239 233.50765112821387 315.88 233.2 315.88 L 228.54 315.88 C 228.23234887178612 315.88 227.9372983328233 316.0022139348239 227.71975613382358 316.21975613382364 C 227.50221393482386 316.43729833282333 227.38 316.73234887178614 227.38 317.04 L 227.38 355.9 C 227.38 356.20765112821385 227.50221393482386 356.50270166717667 227.71975613382358 356.72024386617636 C 227.9372983328233 356.9377860651761 228.23234887178612 357.06 228.54 357.06 L 233.2 357.06 C 233.50765112821387 357.06 233.80270166717668 356.9377860651761 234.0202438661764 356.7202438661764 C 234.23778606517612 356.50270166717667 234.36 356.20765112821385 234.36 355.9 L 234.36 317.04 Z" stroke-linecap="round" />
</g>
		<g transform="matrix(1 0 0 1 15.4789108241 102.3382920817)" id="AE3ek-klKOfJi7jp6mlAz"  >
<path style="stroke: none; stroke-width: 1; stroke-dasharray: none; stroke-linecap: butt; stroke-dashoffset: 0; stroke-linejoin: miter; stroke-miterlimit: 4; fill: rgb(35,31,32); fill-rule: nonzero; opacity: 1;"  transform=" translate(-268.475, -336.315)" d="M 270.93 327.74 Q 271.32 329.3 271.32 327.69 L 271.32 304.85 C 271.32 304.6802614465027 271.3884819462375 304.51747494224736 271.5103805922287 304.3974516600406 C 271.63227923821995 304.2774283778338 271.7976092816043 304.21 271.97 304.21 L 283.98 304.21 C 284.11791257471657 304.21 284.25017660942405 304.26478555699003 284.347695526217 304.362304473783 C 284.44521444301 304.459823390576 284.5 304.59208742528347 284.5 304.73 L 284.5 367.96 Q 284.5 368.42 284.04 368.42 L 271.69 368.42 Q 271.2 368.42 271.08 367.94 L 265.51 345.92 Q 264.61 342.35 264.61 346.03 L 264.61 367.78 Q 264.61 368.41 263.98 368.41 L 253.05 368.41 Q 252.45 368.41 252.45 367.81 L 252.45 304.63 C 252.45 304.5186090742674 252.49424987295345 304.41178043084983 252.57301515190164 304.33301515190163 C 252.6517804308498 304.25424987295344 252.75860907426738 304.21 252.87 304.21 L 264.46 304.21 C 264.7653531611741 304.2103493079155 265.0326253119078 304.4200551492604 265.11 304.72 L 270.93 327.74 Z" stroke-linecap="round" />
</g>
		<g transform="matrix(1 0 0 1 64.3889108241 102.3216355366)" id="ZCWN-3IPEw-uxXgcJqMNa"  >
<path style="stroke: none; stroke-width: 1; stroke-dasharray: none; stroke-linecap: butt; stroke-dashoffset: 0; stroke-linejoin: miter; stroke-miterlimit: 4; fill: rgb(35,31,32); fill-rule: nonzero; opacity: 1;"  transform=" translate(-317.385, -336.2983434549)" d="M 330.66 336.38 C 332.92 337.61 334.04 339 334.09 341.75 Q 334.2 347.35 334.2 357.27 C 334.2 362.85 332.98 368.24 326.25 368.32 Q 315.99 368.44 300.95 368.38 C 300.7386321523142 368.37456910736836 300.57008098868926 368.2060179437434 300.57 368 L 300.57 304.74 Q 300.57 304.2 301.11 304.2 Q 315.12 304.23 323.54 304.18 C 325.96 304.16 329.09 304.21 330.83 305.76 Q 333.32 307.98 333.35 310.67 Q 333.46 321.38 333.35 331.25 Q 333.31 334.02 330.64 335.69 Q 330.06 336.05 330.66 336.38 Z M 320.96 330.69 L 320.92 317.31 C 320.92000893914235 316.9130887012233 320.7616552760639 316.5325779901795 320.48005952223406 316.25285954137513 C 320.19846376840417 315.9731410925708 319.816902359735 315.8173361656787 319.42 315.82 L 314.16 315.84 C 314.02453071575354 315.8395569560052 313.8946276585309 315.9141647473664 313.7989495472193 316.04736368664334 C 313.70327143590765 316.18056262592034 313.64968058341964 316.36140714023475 313.65 316.55 L 313.71 331.49 C 313.71065981157807 331.8814697566713 313.9388009779033 332.19907804704565 314.22 332.2 L 319.48 332.18 C 320.2989963549618 332.1745032565794 320.9600184456547 331.5090148004088 320.96 330.69 Z M 321.2164 343.2002 C 321.21507740162576 342.9482432464873 321.113717743685 342.7071317799447 320.93461974180696 342.5299091498141 C 320.75552173992895 342.3526865196835 320.5133567167789 342.2538704222148 320.2614 342.2552 L 314.5815 342.285 C 314.0568656960572 342.28775425509326 313.63378672452217 342.7152654825205 313.6365 343.2399 L 313.7036 356.0598 C 313.70492259837425 356.31175675351267 313.806282256315 356.55286822005525 313.985380258193 356.73009085018583 C 314.16447826007106 356.9073134803165 314.40664328322106 357.00612957778515 314.6586 357.0048 L 320.3385 356.975 C 320.86313430394284 356.9722457449068 321.2862132754779 356.54473451747947 321.2835 356.0201 L 321.2164 343.2002 Z" stroke-linecap="round" />
</g>
		<g transform="matrix(1 0 0 1 99.2320839477 102.3232920817)" id="f6Gsl1ueZW166ADdlQqEP"  >
<path style="stroke: none; stroke-width: 1; stroke-dasharray: none; stroke-linecap: butt; stroke-dashoffset: 0; stroke-linejoin: miter; stroke-miterlimit: 4; fill: rgb(35,31,32); fill-rule: nonzero; opacity: 1;"  transform=" translate(-352.2281731236, -336.3)" d="M 352.95 356.24 L 364.94 356.22 C 365.0567895915116 356.21810030285684 365.1682820117022 356.26864731042076 365.2438181088444 356.35774116858846 C 365.3193542059866 356.44683502675616 365.3509804565024 356.5650946564357 365.33 356.68 L 363.23 368.07 C 363.1964413719587 368.25398006046186 363.0370073463617 368.38824029254357 362.85 368.39 L 339.54 368.39 C 339.4365655689626 368.39 339.337367542932 368.3489108322575 339.26422835533725 368.27577164466277 C 339.1910891677425 368.20263245706803 339.15 368.10343443103744 339.15 368 L 339.12 304.63 C 339.12 304.414608947566 339.294608947566 304.24 339.51 304.24 L 352.18 304.21 C 352.28343443103745 304.21 352.38263245706804 304.2510891677425 352.4557716446628 304.32422835533725 C 352.5289108322575 304.397367542932 352.57 304.4965655689626 352.57 304.6 L 352.56 355.85 C 352.56 356.065391052434 352.734608947566 356.24 352.95 356.24 Z" stroke-linecap="round" />
</g>
		<g transform="matrix(1 0 0 1 168.0471653619 102.3283201823)" id="uxm2jrlznmHq8YqWeoMLc"  >
<path style="stroke: none; stroke-width: 1; stroke-dasharray: none; stroke-linecap: butt; stroke-dashoffset: 0; stroke-linejoin: miter; stroke-miterlimit: 4; fill: rgb(35,31,32); fill-rule: nonzero; opacity: 1;"  transform=" translate(-421.0432545378, -336.3050281006)" d="M 420.82 343.14 L 420.81 355.83 C 420.81 356.03986820493566 420.9801317950643 356.21 421.19 356.21 L 433.86 356.26 C 433.97417223948366 356.2580427163305 434.0831722850651 356.30753163841945 434.1568448473795 356.39477546221286 C 434.23051740969396 356.4820192860063 434.2610515944911 356.597768268313 434.24 356.71 L 432.12 368.08 C 432.0858846522401 368.262177707814 431.9253174189513 368.39316676654965 431.74 368.39 L 407.8 368.39 C 407.59013179506434 368.39 407.42 368.21986820493566 407.42 368.01 L 407.42 304.6 C 407.42 304.39013179506435 407.59013179506434 304.22 407.8 304.22 L 432.27 304.23 C 432.45531741895127 304.22683323345035 432.6158846522401 304.35782229218603 432.65 304.54 L 434.66 315.92 C 434.6807156418978 316.03050560558086 434.6514329516978 316.14451189944464 434.58002770764983 316.23135611517876 C 434.5086224636018 316.3182003309128 434.402425788942 316.3689662375541 434.29 316.37 L 421.2 316.36 C 420.9901317950643 316.36 420.82 316.53013179506434 420.82 316.74 L 420.82 330.99 C 420.82 331.1998682049357 420.9901317950643 331.37 421.2 331.37 L 431.05 331.38 C 431.2598682049357 331.38 431.43 331.5501317950643 431.43 331.76 L 431.45 342.36 C 431.45 342.5698682049357 431.27986820493567 342.74 431.07 342.74 L 421.2 342.76 C 420.9901317950643 342.76 420.82 342.9301317950643 420.82 343.14 Z" stroke-linecap="round" />
</g>
		<g transform="matrix(1 0 0 1 -122.2960891759 158.0132920817)" id="w3QjjtDA9lKgkrO33lXvs"  >
<path style="stroke: none; stroke-width: 1; stroke-dasharray: none; stroke-linecap: butt; stroke-dashoffset: 0; stroke-linejoin: miter; stroke-miterlimit: 4; fill: rgb(0,0,0); fill-rule: nonzero; opacity: 1;"  transform=" translate(-2.6, -13.03)" d="M 0 26.06 L 0 0 L 5.2 0 L 5.2 26.06 z" stroke-linecap="round" />
</g>
		<g transform="matrix(1 0 0 1 -110.1660891759 157.9932920817)" id="3D9-mrftywG7XITvDBu_y"  >
<path style="stroke: none; stroke-width: 1; stroke-dasharray: none; stroke-linecap: butt; stroke-dashoffset: 0; stroke-linejoin: miter; stroke-miterlimit: 4; fill: rgb(0,0,0); fill-rule: nonzero; opacity: 1;"  transform=" translate(-142.83, -391.97)" d="M 143.68 388.13 L 143.74 388.1 C 143.79382073636938 388.07383636690514 143.82854205466637 388.0198254273321 143.83 387.96 L 144.01 379.08 C 144.01000000000002 378.9916344400271 144.08163444002707 378.92 144.17 378.92 L 149.15 378.95 C 149.19243463837432 378.95 149.23313126443819 378.9668570944585 149.26313708498986 378.9968629150101 C 149.29314290554154 379.02686873556183 149.31 379.06756536162567 149.31 379.11 L 149.31 404.83 C 149.31 404.87243463837433 149.29314290554154 404.91313126443816 149.26313708498986 404.94313708498987 C 149.23313126443819 404.9731429055415 149.19243463837432 404.99 149.15 404.99 L 144.08 405 C 144.0088793970342 404.9978035486559 143.94775471903554 404.94890380625696 143.93 404.88 L 141.54 395.41 C 141.53171572875254 395.3216344400271 141.45336555997292 395.25671572875257 141.365 395.265 C 141.2766344400271 395.27328427124746 141.21171572875255 395.35163444002706 141.22 395.44 L 141.1 404.86 C 141.09999999999997 404.9483655599729 141.0283655599729 405.02 140.94 405.02 L 136.51 404.97 C 136.46756536162567 404.97 136.4268687355618 404.95314290554154 136.39686291501013 404.9231370849899 C 136.36685709445845 404.8931312644382 136.35 404.85243463837435 136.35 404.81 L 136.35 379.09 C 136.35000000000002 379.0016344400271 136.42163444002708 378.93 136.51 378.93 L 141.22 378.94 C 141.29484263037097 378.9376319060582 141.36131743368028 378.9874880085402 141.38 379.06 L 143.45 388.02 C 143.46008359922664 388.06902854618284 143.49253078470298 388.1105128537166 143.537686881475 388.132109247825 C 143.58284297824702 388.15370564193336 143.63550376484156 388.1529251471291 143.68 388.13 Z" stroke-linecap="round" />
</g>
		<g transform="matrix(1 0 0 1 -94.7960891759 157.9782920817)" id="OQIWGAySTwG-jOUDFq9dq"  >
<path style="stroke: none; stroke-width: 1; stroke-dasharray: none; stroke-linecap: butt; stroke-dashoffset: 0; stroke-linejoin: miter; stroke-miterlimit: 4; fill: rgb(0,0,0); fill-rule: nonzero; opacity: 1;"  transform=" translate(-158.2, -391.955)" d="M 158.25 389.77 Q 161.73 389.9 162.01 389.91 C 163.1447939614162 389.95909112919054 164.03765452664632 390.8210109817641 164.03 391.86 L 163.98 402.27 C 163.97449299002318 403.7517256287193 162.77622758887716 404.9499910298654 161.3 404.95 L 153.8 404.95 Q 153.48 404.95 153.42 404.63 L 152.66 400.43 C 152.64805880524395 400.36243111682586 152.66690922885584 400.29305934907075 152.71140435898954 400.24082593543557 C 152.75589948912324 400.18859252180033 152.82139205735018 400.1589529513099 152.89 400.16 L 158.22 400.16 Q 158.76 400.16 158.83 399.62 Q 159.47 394.18 158.15 394.13 Q 154.67 394.01 154.39 394 C 153.2552060385838 393.9509088708095 152.36234547335368 393.0889890182359 152.37 392.05 L 152.42 381.64 C 152.4255070099768 380.1582743712806 153.62377241112284 378.96000897013454 155.1 378.96 L 162.6 378.96 Q 162.92 378.96 162.98 379.28 L 163.74 383.48 C 163.75194119475606 383.54756888317416 163.73309077114416 383.6169406509293 163.68859564101047 383.66917406456446 C 163.64410051087677 383.7214074781997 163.57860794264982 383.7510470486901 163.51 383.75 L 158.18 383.75 Q 157.64 383.75 157.57 384.29 Q 156.93 389.73 158.25 389.77 Z" stroke-linecap="round" />
</g>
		<g transform="matrix(1 0 0 1 -78.9257978105 157.9937087484)" id="ZdjsxoqIiR85306fHrrxq"  >
<path style="stroke: none; stroke-width: 1; stroke-dasharray: none; stroke-linecap: butt; stroke-dashoffset: 0; stroke-linejoin: miter; stroke-miterlimit: 4; fill: rgb(0,0,0); fill-rule: nonzero; opacity: 1;"  transform=" translate(-174.0702913654, -391.9704166667)" d="M 174.07 400.48 Q 174.68 400.48 174.97 400.41 Q 175.5 400.27 175.5 399.73 L 175.5 379.47 Q 175.5 378.93 176.03 378.93 L 180.3 378.93 Q 180.79 378.93 180.79 379.41 Q 180.84 390.3 180.76 401.49 C 180.73 405.39 177.14 405 174.07 405 C 170.99 405 167.4 405.39 167.37 401.49 Q 167.3 390.3 167.36 379.41 Q 167.36 378.93 167.85 378.93 L 172.12 378.93 Q 172.65 378.93 172.65 379.47 L 172.64 399.73 Q 172.64 400.27 173.17 400.41 Q 173.46 400.48 174.07 400.48 Z" stroke-linecap="round" />
</g>
		<g transform="matrix(1 0 0 1 -62.2864760933 157.9982920817)" id="NSKYOSat70dKhk9WFrgsG"  >
<path style="stroke: none; stroke-width: 1; stroke-dasharray: none; stroke-linecap: butt; stroke-dashoffset: 0; stroke-linejoin: miter; stroke-miterlimit: 4; fill: rgb(0,0,0); fill-rule: nonzero; opacity: 1;"  transform=" translate(-190.7096130826, -391.975)" d="M 189.12 397.51 Q 188.98 401.46 189.1 404.67 Q 189.11 405 188.78 405 L 184.16 405 Q 183.84 405 183.84 404.67 L 183.84 379.55 Q 183.84 378.95 184.44 378.95 L 193.7 378.95 Q 197.17 378.95 197.2 382.42 Q 197.26 388.32 197.19 394.2 C 197.17 395.62 196.66 396.2 195.45 396.55 Q 194.9 396.71 195.08 397.26 L 197.49 404.57 Q 197.64 405 197.18 405 L 192.82 405 Q 192.34 405 192.19 404.55 L 189.83 397.41 Q 189.19 395.46 189.12 397.51 Z M 192.12 383.94 C 192.12 383.8206525795722 192.07258942183557 383.70619331876765 191.98819805153394 383.62180194846604 C 191.9038066812323 383.53741057816444 191.7893474204278 383.49 191.67 383.49 L 189.49 383.49 C 189.3706525795722 383.49 189.25619331876769 383.53741057816444 189.17180194846605 383.62180194846604 C 189.08741057816442 383.70619331876765 189.04 383.8206525795722 189.04 383.94 L 189.04 392.04 C 189.04 392.1593474204278 189.08741057816442 392.2738066812324 189.17180194846605 392.358198051534 C 189.25619331876769 392.4425894218356 189.3706525795722 392.49 189.49 392.49 L 191.67 392.49 C 191.7893474204278 392.49 191.9038066812323 392.4425894218356 191.98819805153394 392.358198051534 C 192.07258942183557 392.2738066812324 192.12 392.1593474204278 192.12 392.04 L 192.12 383.94 Z" stroke-linecap="round" />
</g>
		<g transform="matrix(1 0 0 1 -45.8860891759 157.9982920817)" id="JJprx83F-HA4_K4dR6itZ"  >
<path style="stroke: none; stroke-width: 1; stroke-dasharray: none; stroke-linecap: butt; stroke-dashoffset: 0; stroke-linejoin: miter; stroke-miterlimit: 4; fill: rgb(0,0,0); fill-rule: nonzero; opacity: 1;"  transform=" translate(-207.11, -391.975)" d="M 207.1 378.93 Q 209.15 378.93 209.5 379.05 Q 209.94 379.2 210.02 379.66 L 214.45 404.22 Q 214.6 405.01 213.8 405.01 L 210.06 405.01 Q 209.41 405.01 209.3 404.37 L 208.91 402.25 Q 208.83 401.8 208.37 401.78 Q 207.74 401.74 207.11 401.74 Q 206.48 401.74 205.85 401.78 Q 205.39 401.8 205.31 402.25 L 204.92 404.37 Q 204.81 405.01 204.16 405.01 L 200.42 405.02 Q 199.62 405.02 199.77 404.23 L 204.18 379.66 Q 204.26 379.2 204.7 379.05 Q 205.05 378.93 207.1 378.93 Z M 207.11 397.65 Q 207.41 397.65 207.7 397.6 Q 208.21 397.51 208.16 396.99 Q 207.41 389.34 207.12 389.34 Q 206.83 389.34 206.06 396.99 Q 206.01 397.51 206.52 397.6 Q 206.81 397.65 207.11 397.65 Z" stroke-linecap="round" />
</g>
		<g transform="matrix(1 0 0 1 -29.6760891759 157.9832920817)" id="eipnK5QXY3vwbqozfpezo"  >
<path style="stroke: none; stroke-width: 1; stroke-dasharray: none; stroke-linecap: butt; stroke-dashoffset: 0; stroke-linejoin: miter; stroke-miterlimit: 4; fill: rgb(0,0,0); fill-rule: nonzero; opacity: 1;"  transform=" translate(-223.32, -391.96)" d="M 221.6 395.49 L 221.6 404.65 Q 221.6 405 221.26 405 L 217.29 405 Q 216.84 405 216.84 404.55 L 216.84 379.53 Q 216.84 378.92 217.45 378.92 L 221.23 378.92 Q 221.82 378.92 221.96 379.5 Q 223.14 384.51 223.95 387.36 Q 224.47 389.2 224.47 387.29 L 224.47 379.48 Q 224.47 378.93 225.02 378.93 L 229.24 378.93 Q 229.8 378.93 229.8 379.49 L 229.8 404.48 Q 229.8 405 229.28 405 L 224.99 405 Q 224.41 405 224.28 404.44 Q 222.69 397.69 221.83 395.45 Q 221.6 394.86 221.6 395.49 Z" stroke-linecap="round" />
</g>
		<g transform="matrix(1 0 0 1 -14.7712165236 157.9682920817)" id="oGzZg8q33tJ8c74a562kF"  >
<path style="stroke: none; stroke-width: 1; stroke-dasharray: none; stroke-linecap: butt; stroke-dashoffset: 0; stroke-linejoin: miter; stroke-miterlimit: 4; fill: rgb(0,0,0); fill-rule: nonzero; opacity: 1;"  transform=" translate(-238.2248726523, -391.945)" d="M 238.17 391.94 Q 238.18 399.03 238.24 399.5 Q 238.33 400.14 238.76 400.14 L 243.28 400.16 Q 243.64 400.16 243.58 400.51 L 242.86 404.38 Q 242.76 404.94 242.19 404.95 Q 239.3 405.04 236.04 404.91 C 233.43 404.81 232.96 403.24 232.9 400.88 Q 232.84 398.71 232.84 391.95 Q 232.84 385.18 232.89 383.01 C 232.95 380.65 233.42 379.08 236.03 378.98 Q 239.29 378.85 242.18 378.94 Q 242.75 378.95 242.85 379.51 L 243.57 383.38 Q 243.63 383.73 243.27 383.73 L 238.75 383.75 Q 238.32 383.75 238.23 384.39 Q 238.18 384.86 238.17 391.94 Z" stroke-linecap="round" />
</g>
		<g transform="matrix(1 0 0 1 -0.9321465963 157.9882920817)" id="L0ANdtgRrIl05LHe-kOSK"  >
<path style="stroke: none; stroke-width: 1; stroke-dasharray: none; stroke-linecap: butt; stroke-dashoffset: 0; stroke-linejoin: miter; stroke-miterlimit: 4; fill: rgb(0,0,0); fill-rule: nonzero; opacity: 1;"  transform=" translate(-252.0639425796, -391.965)" d="M 251.91 384.17 L 251.91 389.58 C 251.91 389.6887387608342 251.9531963045498 389.7930238651228 252.0300862197135 389.8699137802865 C 252.1069761348772 389.94680369545017 252.21126123916576 389.99 252.32 389.99 L 255.84 389.96 C 255.94873876083423 389.96 256.0530238651228 390.0031963045498 256.1299137802865 390.0800862197135 C 256.20680369545016 390.1569761348772 256.25 390.2612612391658 256.25 390.37 L 256.25 394.06 C 256.25 394.16873876083423 256.20680369545016 394.2730238651228 256.1299137802865 394.3499137802865 C 256.0530238651228 394.4268036954502 255.94873876083423 394.47 255.84 394.47 L 252.32 394.44 C 252.21126123916576 394.44 252.1069761348772 394.48319630454984 252.0300862197135 394.5600862197135 C 251.9531963045498 394.6369761348772 251.91 394.7412612391658 251.91 394.85 L 251.9 399.77 C 251.9 399.8787387608342 251.94319630454982 399.9830238651228 252.0200862197135 400.0599137802865 C 252.0969761348772 400.13680369545017 252.20126123916577 400.18 252.31 400.18 L 256.92 400.16 C 257.04238896197165 400.1606323404285 257.1580958603319 400.215908921332 257.2354927955127 400.31072016692843 C 257.3128897306934 400.40553141252485 257.3438827253336 400.52996220054683 257.32 400.65 L 256.53 404.67 C 256.4919927239005 404.86105689521594 256.3247980369865 404.99899251191994 256.13 405 L 247 405 C 246.89126123916577 405 246.7869761348772 404.95680369545016 246.7100862197135 404.8799137802865 C 246.6331963045498 404.8030238651228 246.59 404.6987387608342 246.59 404.59 L 246.59 379.34 C 246.59000000000003 379.11356325256935 246.77356325256937 378.93 247 378.93 L 256.37 378.95 C 256.56479803698653 378.95100748808005 256.73199272390053 379.08894310478405 256.77 379.28 L 257.53 383.26 C 257.55388272533355 383.38003779945313 257.5228897306934 383.5044685874752 257.4454927955127 383.5992798330716 C 257.36809586033195 383.694091078668 257.25238896197163 383.74936765957153 257.13 383.75 L 252.32 383.76 C 252.21126123916576 383.76 252.1069761348772 383.80319630454983 252.0300862197135 383.8800862197135 C 251.9531963045498 383.9569761348772 251.91 384.0612612391658 251.91 384.17 Z" stroke-linecap="round" />
</g>
		<g transform="matrix(1 0 0 1 19.3639108241 157.9982920817)" id="Cu9DoPKVL2iq8Lkvq9j0i"  >
<path style="stroke: none; stroke-width: 1; stroke-dasharray: none; stroke-linecap: butt; stroke-dashoffset: 0; stroke-linejoin: miter; stroke-miterlimit: 4; fill: rgb(0,0,0); fill-rule: nonzero; opacity: 1;"  transform=" translate(-272.36, -391.975)" d="M 272.35 378.93 Q 273.71 378.93 274.71 379.07 Q 275.17 379.13 275.25 379.59 L 279.7 404.23 Q 279.84 405.01 279.05 405.01 L 275.27 405.01 Q 274.52 405.01 274.46 404.27 L 274.29 402.23 Q 274.25 401.84 273.65 401.76 Q 273.52 401.74 272.36 401.74 Q 271.2 401.74 271.07 401.76 Q 270.47 401.84 270.43 402.23 L 270.26 404.27 Q 270.2 405.01 269.45 405.01 L 265.67 405.02 Q 264.88 405.02 265.02 404.24 L 269.45 379.59 Q 269.53 379.13 269.99 379.07 Q 270.99 378.93 272.35 378.93 Z M 272.36 389.73 Q 271.56 393.25 271.26 397.35 Q 271.24 397.64 271.54 397.64 L 273.21 397.64 Q 273.54 397.64 273.5 397.31 L 272.64 389.74 Q 272.55 388.88 272.36 389.73 Z" stroke-linecap="round" />
</g>
		<g transform="matrix(1 0 0 1 35.9689182559 157.9682857162)" id="i9Rzm2pqka586uwvNnKvh"  >
<path style="stroke: none; stroke-width: 1; stroke-dasharray: none; stroke-linecap: butt; stroke-dashoffset: 0; stroke-linejoin: miter; stroke-miterlimit: 4; fill: rgb(0,0,0); fill-rule: nonzero; opacity: 1;"  transform=" translate(-288.9650074318, -391.9449936345)" d="M 282.31 379.62 C 282.30998191980206 379.4219948355172 282.3893171988676 379.2322414623578 282.530264489423 379.0931734690098 C 282.6712117799784 378.95410547566183 282.8620129148897 378.8773242536974 283.06 378.88 L 292.13 378.91 C 294.1088598781434 378.92098466791276 295.7056346541737 380.54906875327697 295.7 382.55 L 295.64 401.39 C 295.6373130882857 402.3544668090898 295.25514660496054 403.2782332952388 294.57785374616554 403.95740231153746 C 293.9005608873705 404.63657132783607 292.98382809027817 405.01530218105296 292.03 405.01 L 282.96 404.98 C 282.5552198526539 404.97452950017606 282.2299630354871 404.6448171101713 282.23 404.24 L 282.31 379.62 Z M 290.46 383.9 C 290.46 383.66804040507105 290.27195959492894 383.48 290.04 383.48 L 287.9 383.48 C 287.66804040507105 383.48 287.48 383.66804040507105 287.48 383.9 L 287.48 400.06 C 287.48 400.2919595949289 287.66804040507105 400.48 287.9 400.48 L 290.04 400.48 C 290.27195959492894 400.48 290.46 400.2919595949289 290.46 400.06 L 290.46 383.9 Z" stroke-linecap="round" />
</g>
		<g transform="matrix(1 0 0 1 52.3889108241 157.9882920817)" id="ee4PnJCwC8WFxBV6hzDRi"  >
<path style="stroke: none; stroke-width: 1; stroke-dasharray: none; stroke-linecap: butt; stroke-dashoffset: 0; stroke-linejoin: miter; stroke-miterlimit: 4; fill: rgb(0,0,0); fill-rule: nonzero; opacity: 1;"  transform=" translate(-305.385, -391.965)" d="M 305.39 394.54 Q 305.66 394.54 307.55 379.33 Q 307.59 378.93 307.99 378.93 L 312.54 378.93 Q 312.91 378.93 312.84 379.3 L 308.2 404.44 Q 308.12 404.88 307.68 404.91 Q 306.61 405 305.39 405 Q 304.17 405 303.1 404.91 Q 302.66 404.88 302.58 404.44 L 297.93 379.3 Q 297.86 378.93 298.23 378.93 L 302.78 378.93 Q 303.18 378.93 303.22 379.33 Q 305.12 394.54 305.39 394.54 Z" stroke-linecap="round" />
</g>
		<g transform="matrix(1 0 0 1 64.9439108241 158.0032920817)" id="d1e7NuvNEXw4_NxngwMkp"  >
<path style="stroke: none; stroke-width: 1; stroke-dasharray: none; stroke-linecap: butt; stroke-dashoffset: 0; stroke-linejoin: miter; stroke-miterlimit: 4; fill: rgb(0,0,0); fill-rule: nonzero; opacity: 1;"  transform=" translate(-2.6, -13.03)" d="M 0 26.06 L 0 0 L 5.2 0 L 5.2 26.06 z" stroke-linecap="round" />
</g>
		<g transform="matrix(1 0 0 1 76.4539108241 157.9782920817)" id="BhviqynKFQDo7HocL547M"  >
<path style="stroke: none; stroke-width: 1; stroke-dasharray: none; stroke-linecap: butt; stroke-dashoffset: 0; stroke-linejoin: miter; stroke-miterlimit: 4; fill: rgb(0,0,0); fill-rule: nonzero; opacity: 1;"  transform=" translate(-329.45, -391.955)" d="M 329.29 394.13 Q 327.85 394.03 326.4 394.06 Q 323.53 394.12 323.52 391.16 Q 323.51 389.05 323.67 381.72 C 323.70799597303414 380.1789145382702 324.96844627891585 378.9495316695053 326.51 378.95 L 333.69 378.95 Q 334.16 378.95 334.25 379.41 L 334.97 383.39 Q 335.03 383.76 334.66 383.76 L 329.17 383.76 Q 328.69 383.76 328.69 384.25 L 328.69 389.11 Q 328.69 389.63 329.21 389.73 Q 329.33 389.75 329.61 389.77 Q 331.05 389.88 332.5 389.85 Q 335.37 389.79 335.38 392.75 Q 335.39 394.86 335.23 402.19 C 335.19200402696583 403.73108546172983 333.93155372108413 404.9604683304947 332.39 404.96 L 325.21 404.96 Q 324.74 404.96 324.65 404.5 L 323.93 400.52 Q 323.87 400.15 324.24 400.15 L 329.73 400.15 Q 330.21 400.15 330.21 399.66 L 330.21 394.8 Q 330.21 394.28 329.69 394.18 Q 329.57 394.16 329.29 394.13 Z" stroke-linecap="round" />
</g>
		<g transform="matrix(1 0 0 1 92.0839108241 157.9732920817)" id="q5D0fFOLY7cXHPjiR2xpa"  >
<path style="stroke: none; stroke-width: 1; stroke-dasharray: none; stroke-linecap: butt; stroke-dashoffset: 0; stroke-linejoin: miter; stroke-miterlimit: 4; fill: rgb(0,0,0); fill-rule: nonzero; opacity: 1;"  transform=" translate(-345.08, -391.95)" d="M 351.81 401.69 C 351.81 403.4959711319467 350.3459711319467 404.96 348.54 404.96 L 341.62 404.96 C 339.8140288680533 404.96 338.35 403.4959711319467 338.35 401.69 L 338.35 382.21 C 338.35 380.4040288680533 339.8140288680533 378.94 341.62 378.94 L 348.54 378.94 C 350.3459711319467 378.94 351.81 380.4040288680533 351.81 382.21 L 351.81 401.69 Z M 346.5839 384.0226 C 346.5841389015134 383.8846873623165 346.5295823295859 383.7523283865504 346.4322321508337 383.65464064216206 C 346.3348819720816 383.5569528977737 346.2027126383985 383.5019384883875 346.0648 383.5017 L 344.1048 383.4983 C 343.9668873623165 383.4980610984866 343.8345283865504 383.5526176704141 343.73684064216206 383.6499678491663 C 343.6391528977737 383.7473180279184 343.5841384883875 383.8794873616015 343.5839 384.0174 L 343.5561 399.9574 C 343.5558610984866 400.0953126376835 343.61041767041417 400.2276716134496 343.7077678491663 400.32535935783795 C 343.8051180279184 400.42304710222623 343.9372873616015 400.47806151161245 344.0752 400.4783 L 346.0352 400.4817 C 346.17311263768346 400.4819389015134 346.3054716134496 400.42738232958584 346.4031593578379 400.33003215083374 C 346.50084710222626 400.2326819720816 346.5558615116125 400.1005126383985 346.5561 399.9626 L 346.5839 384.0226 Z" stroke-linecap="round" />
</g>
		<g transform="matrix(1 0 0 1 108.7052456991 157.9982920817)" id="pTmexn5bX-0GjQJyuhsKj"  >
<path style="stroke: none; stroke-width: 1; stroke-dasharray: none; stroke-linecap: butt; stroke-dashoffset: 0; stroke-linejoin: miter; stroke-miterlimit: 4; fill: rgb(0,0,0); fill-rule: nonzero; opacity: 1;"  transform=" translate(-361.701334875, -391.975)" d="M 360.83 397.31 Q 360.06 395.31 360.06 397.45 L 360.06 404.73 C 360.06 404.8791168824543 359.9391168824543 405 359.79 405 L 355.04 405 Q 354.84 405 354.84 404.8 L 354.84 379.43 Q 354.84 378.95 355.31 378.95 L 365.17 378.95 C 365.97891029401063 378.95 366.7546897283525 379.2713383631145 367.326675682619 379.843324317381 C 367.8986616368855 380.4153102716475 368.22 381.1910897059894 368.22 382 L 368.22 394.69 C 368.22001286427906 394.72325307959136 368.2166629864855 394.75675185752647 368.21 394.79 Q 367.97 396.13 366.45 396.56 Q 365.9 396.71 366.08 397.26 L 368.45 404.45 Q 368.64 405 368.05 405 L 363.7 405 Q 363.14 405 363.01 404.46 Q 362.01 400.39 360.83 397.31 Z M 363.12 383.95 C 363.12 383.6959490150778 362.9140509849222 383.49 362.66 383.49 L 360.5 383.49 C 360.2459490150778 383.49 360.04 383.6959490150778 360.04 383.95 L 360.04 392.03 C 360.04 392.15199958532617 360.08846414656807 392.2690023852597 360.1747308806542 392.3552691193458 C 360.2609976147403 392.4415358534319 360.3780004146738 392.49 360.5 392.49 L 362.66 392.49 C 362.7819995853262 392.49 362.89900238525973 392.4415358534319 362.98526911934584 392.3552691193458 C 363.07153585343195 392.2690023852597 363.12 392.15199958532617 363.12 392.03 L 363.12 383.95 Z" stroke-linecap="round" />
</g>
		<g transform="matrix(1 0 0 1 124.2039108241 157.9782920817)" id="KwOjLY9NQyrki6gEeRUe5"  >
<path style="stroke: none; stroke-width: 1; stroke-dasharray: none; stroke-linecap: butt; stroke-dashoffset: 0; stroke-linejoin: miter; stroke-miterlimit: 4; fill: rgb(0,0,0); fill-rule: nonzero; opacity: 1;"  transform=" translate(-377.2, -391.955)" d="M 377.25 389.77 C 379.77 389.98 383.04 388.8 383.12 393.02 Q 383.17 395.51 382.94 402.4 C 382.8914672954842 403.82290059720134 381.7191175808151 404.9510106999961 380.29 404.95 L 372.82 404.95 Q 372.48 404.95 372.42 404.62 L 371.68 400.52 C 371.66218275730574 400.42972801454926 371.6853881214464 400.3362058653031 371.7433384084383 400.2647338446797 C 371.8012886954303 400.1932618240563 371.88799466966765 400.15122665596965 371.98 400.15 L 377.21 400.15 Q 377.74 400.15 377.81 399.63 Q 378.5 394.25 377.15 394.14 C 374.63 393.93 371.36 395.11 371.28 390.89 Q 371.23 388.4 371.46 381.51 C 371.5085327045158 380.0870994027986 372.6808824191849 378.9589893000038 374.11 378.96 L 381.58 378.96 Q 381.92 378.96 381.98 379.29 L 382.72 383.39 C 382.7378172426943 383.4802719854507 382.7146118785536 383.57379413469687 382.6566615915617 383.64526615532026 C 382.59871130456975 383.71673817594365 382.5120053303324 383.7587733440303 382.42 383.76 L 377.19 383.76 Q 376.66 383.76 376.59 384.28 Q 375.9 389.66 377.25 389.77 Z" stroke-linecap="round" />
</g>
</g>
</g>
</svg>