<svg version="1.1" id="Group_7732" xmlns="http://www.w3.org/2000/svg" xmlns:xlink="http://www.w3.org/1999/xlink" x="0px" y="0px"
	 viewBox="0 0 150.9 66.8" style="enable-background:new 0 0 150.9 66.8;" xml:space="preserve">
<style type="text/css">
	.st0{fill:#FFFFFF;}
</style>
<path id="Path_950" class="st0" d="M97.4,29.4c0-1.8,1.5-3.1,4.4-3.1c2.8-0.2,5.2,1.9,5.4,4.7l10.1-2.5c-1-5.9-5.2-11.6-15.9-11.6
	c-9.5,0-15.5,6.3-15.5,13.5c0,15.2,20.1,11.6,20.1,17.5c0,1.6-1.1,2.5-4.3,2.5c-4.6,0-9.6-3.6-11.6-5.6L83.5,53
	c1.7,1.5,3.6,2.7,5.6,3.7v-2.5l3.6,2.1L100,52l6.3,3.7l0.1-2.4l3.5,2.3l6.9-3.8c0.6-1.4,0.9-2.9,0.9-4.5
	C117.6,31.4,97.4,36.5,97.4,29.4"/>
<path id="Path_951" class="st0" d="M55.5,54l8.2-1.7l5.6,6.4l0,0.1h0.1l0.2-5.7l3.5,2.3l7.4-4l1.1,0.7v-2.8h-17v-6.8h14.3v-8.9H64.5
	v-6.8h17v-9.6H52.9v34L55.5,54z"/>
<path id="Path_952" class="st0" d="M150.9,26.9v-9.6h-28.6v37.4l5.6-3.1l7.1,4.6L135,59h3.2l0.2-5.7l3.5,2.3l7.4-4l1.6,1v-3.2h-17
	v-6.8h14.3v-8.9h-14.3v-6.8H150.9z"/>
<path id="Path_980" class="st0" d="M40.8,37.5v-0.3c2.4-0.3,7-1.9,7-8.5c0-6.9-5.2-11.5-14-11.5H16.6c0.1,0,0.3-0.1,0.4-0.1
	c1.6-0.2,1.9-1.8,3.2-2.2c1.2-0.5,2.4-1.1,3.5-1.8c0,0,0.1-0.1,0.1-0.2c-1-0.9-2.4-1-3.5-0.2c-1.1,0.7-2.1,1.5-3.1,2.4
	c1.1-1.9,2.2-3.6,2.3-5.9c-0.5,0.1-0.9,0.4-1.4,0.6c-1.4,1.1-2.4,2.8-2.7,4.6c0,0.2,0,0.4,0,0.6c0.4,0.8,0,0.8-0.8,0.8
	c1-2,0.6-4,0.2-6c-0.1-0.3-0.3-0.5-0.5-0.8c-0.3,0.2-0.7,0.4-0.8,0.7c-0.3,1.1-0.6,2.2-0.8,3.4c-0.1,0.7-0.2,1.3-0.2,2
	c0,0.4,0.1,0.8,0.1,1.1c1.4-0.1,1.5,0.1,1.1,1.3c-0.2,0.8-0.5,1.6-0.6,2.4c-0.7-1.5-1.4-3-2.1-4.5c-0.4-0.9-1-1.8-1.4-2.6
	c-0.7-1.3-0.3-3,1.1-3.7c0.1-0.1,0.2-0.1,0.3-0.2c0.4-0.2,0.8-0.5,1-0.9c0.7-1.2,1.3-2.3,1.9-3.5c0.2-0.4,0.4-0.8,0.4-1.2
	c0.1-0.6,0-1.1-0.3-1.6c-0.2-0.2-1.1,0-1.6,0.1c-0.3,0.1-0.6,0.3-0.9,0.5c0.1-0.7,0.3-1.3,0.4-1.9C10.8-0.2,10,0.4,7.9,3.7
	C7.6,3,7.3,2.4,7,1.8C6.7,1.3,6.4,0.8,6.1,0.3C5.8,0,5.5,0,5.1,0.1C4.8,0.3,4.6,0.6,4.6,1C4.8,2.6,5,4.2,5.3,5.7
	C5.5,6.4,5.8,7,6.1,7.6c0,0-0.2,0.2-0.4,0.5c1.6,0.7,2.7,2.2,3,3.9c-1.3-0.2-2.5-1.1-3-2.3C4.9,8.1,3.6,6.9,2,6.3
	C1.5,6.2,1,6.3,0.6,6.6C0.4,7,0.4,7.6,0.7,8C1.9,9.3,3,10.6,5,11c0.9,0.2,1.7,1.2,2.7,1.5c2.4,0.8,2.7,2.8,3.3,4.7
	c0.1,0.1-0.1,0.4-0.1,0.5c-0.3,0.6-0.4,1.3-0.4,1.9c0.1,1.2,0.2,2.4,0.4,3.5c-0.5,1-0.3,1.9-0.8,2.9c0.1-1.4,0.3-3,0.4-4.5l-0.4-0.2
	l-1.8,1c0-1.1,0-2.3,0-3.6c0-0.3-0.3-0.5-0.4-0.8c-0.3,0.2-0.7,0.3-0.8,0.5c-0.5,1.3-1,2.6-1.5,3.9c-0.4-0.4-0.9-0.8-1.4-1.1
	c-0.7-0.4-1.5-0.6-2.3-0.7c-0.9-0.1-1.2,0.6-0.7,1.3c0.9,1.2,1.5,2.6,3.1,3c0.4,0.1,0.6,0.5,1,0.7c0.4,0.3,0.9,0.4,1.5,0.7
	c0.1,0.6-0.5,0.6-1,0.5c-2.2-0.1-4.3,0.6-5.8,2.1l4.4,0c0,0.3,0,0.6,0,0.9c-0.1,0.7,0,1.1,0.8,0.5c0.1-0.1,0.3-0.2,0.4-0.1
	c1.7,0.9,3.3,0,4.9-0.3l-0.6,0.5c0.6,0.3,1.2,0.5,1.8,0.9c1.3,0.8,2.6,1.7,3.9,2.6v16.6c-0.1,0.2-0.3,0.4-0.4,0.6
	c-0.6,1-1.5,1.8-2.6,2.2c-0.9,0.3-1.6,1.3-2.3,1.9C7.4,57.6,7.3,62.6,7.1,66c0,0.2,0,0.4,0.1,0.6l0.3,0.2c0.2-0.3,0.6-0.6,0.6-0.9
	c0.5-2.6,0.8-7,2.7-8.7c0.8-0.7,1.2-1.8,2.3-2.4c-0.5,1.5-0.7,3.2-1.1,4.7c-0.3,1-0.6,0.6-0.9,1.7c-0.1,0.2,0.1,0.2,0.2,0.5
	c0.2-0.1,0.7,0.1,0.7-0.1c0.4-1,0.8-0.6,1.1-1.7c0.6-2.2,0.7-4,2.4-5.7c0,0,0,0,0-0.1v0l3.4-1.9c-0.1,1.4-0.2,2.8-0.6,4.2
	c-0.7,2.5-0.3,3.1-1.1,5.3c0.7,0.2,0.7-0.5,1.3-1.9c0.4-5.4,2.4-3,2.5-3.1c0.4,0.4,0.7,0.9,0.9,1.4c0.6,1.2,0.4,0.4,0.9,1.8
	c0.3,0.7,0.3,0.4,0.7,1.1c0.2,0.2,0.5,0.4,0.8,0.6c1,0.8,1.6,0.7,1.4,0.5c-0.8-0.7-1.4-1.6-1.9-2.6c-0.8-1.4-1.8-2.6-2.7-4
	c-0.2-0.3-0.3-0.6-0.3-0.9c0-0.9,0.1-1.8,0.1-2.8l6.5,4.2c0,0.1,0.3,0.3,0.3,0.3l0.2,1.1c0.2,0.6-0.5,0.6,0,1.5
	c0.3,0.6,0.6-1.7,0.7-1.1c0.6,0,0.8,3,1.2,3c0.4,0,0.5,0.4,0.5-1c-0.4-3-1.1-2-1.6-3.8c-0.4-0.9-1.9-2.1-2.3-2.7l7.6,2.3l6.1-6
	l8,2.4c0.5-1.4,0.8-2.9,0.8-4.4C49.2,42.7,45.7,38.3,40.8,37.5 M9.1,9.4c-0.4-2.1-0.2-2.9,1.1-4.3c-0.1,0.8-0.3,1.5-0.3,2.2
	S10.1,8.9,9.1,9.4 M36.3,29.9c0,2.7-1.9,4-5.1,4h-4.4v-8.3H31C34.4,25.6,36.3,27.3,36.3,29.9 M11.1,29.5c1.5-1.1,1.5-1.9,2.2-3.6
	c0.7,0.8,1.6,0.5,2.2,1.2l0,0v5.4C13.9,31.7,12.4,30.7,11.1,29.5 M32.5,50.4h-5.7v-8.6h5.6c3,0,5.1,1.8,5.1,4.4
	C37.4,49,35.5,50.4,32.5,50.4"/>
</svg>
