<svg xmlns="http://www.w3.org/2000/svg" xmlns:xlink="http://www.w3.org/1999/xlink" width="1770" height="724" viewBox="0 0 1770 724"><defs><clipPath id="b"><rect width="1770" height="724"/></clipPath></defs><g id="a" clip-path="url(#b)"><g transform="translate(76.852 252.15)"><g transform="translate(-57.122 -73.97)"><path d="M438.06,100c-32.946,49.823-87.569,118.937-151,142.18l-8.086,3.311a17.4,17.4,0,0,0,4.736,1.386c.809,0,1.745.077,2.8.116,1.283.077,2.567.09,4.03.064a5.723,5.723,0,0,0,.68,0c16.107-.629,39.581-7.393,44.086,8.984-53.443,2.349-73.156,15.517-91.715,24.116-28.736,16.069-65.2,30.045-89.045,7.7,19.11-2.567,54.354-14.118,66.739-25.412-101.058-1.36-145.94-64.236-177.384-98.658-11.32-13.014-22.935-24.257-34.91-25.181A231.02,231.02,0,1,0,438.06,100Z" transform="translate(0 28.353)" fill="#0085ca"/><path d="M41.91,172.106c31.444,34.422,76.326,97.3,177.436,98.671-12.437,11.281-47.68,22.871-66.739,25.412,23.846,22.332,60.322,8.355,89.045-7.7,18.559-8.6,38.272-21.819,91.715-24.116-4.5-16.377-27.979-9.613-44.086-8.984a5.71,5.71,0,0,1-.68,0c-1.412,0-2.759,0-4.03-.064-1.052,0-1.989-.064-2.8-.116a17.4,17.4,0,0,1-4.736-1.386l8.086-3.311c63.428-23.243,118.077-92.408,151-142.18A230.727,230.727,0,0,0,412.568,70.65c-59.462,10.819-78.457,97.9-112.532,141.025-44.754,62.709-87.685,49.015-132.849,7.02C122.266,177.625,88.5,102.467,40.7,77.144A230.134,230.134,0,0,0,7,146.925C18.975,147.849,30.59,159.092,41.91,172.106Z" transform="translate(1.993 20.034)" fill="#fff"/><path d="M159.743,238.729c45.113,41.981,88.1,55.676,132.836-7.033C326.655,188.585,345.65,101.5,405.125,90.684A231.02,231.02,0,0,0,33.26,97.191C81.055,122.513,114.759,197.659,159.743,238.729Z" transform="translate(9.436 0)" fill="#003087"/><g transform="translate(138.197 89.914)"><path d="M134.648,130.194H146.8V81.641c0-6.417-6.084-11.551-14.118-11.551H107.67v60.155h12.154v-48.6h11.115c2.362,0,3.709,1.681,3.709,4.4h0Z" transform="translate(-107.67 -70.039)" fill="#fff"/><path d="M183.36,130.194V81.641c0-7.482,8.086-11.551,12.141-11.551h14.862c6.058,0,12.129,4.12,12.129,11.551v48.553H210.364v-22.73H195.5v22.73ZM210.312,86.03A4.312,4.312,0,0,0,206,81.641h-6.417a4.428,4.428,0,0,0-4.056,4.389v9.844h14.837Z" transform="translate(-86.216 -70.039)" fill="#fff"/><path d="M221.21,130.194V81.641c0-7.482,8.086-11.551,12.141-11.551h14.862c6.045,0,12.116,4.12,12.116,11.551v48.553H248.214v-22.73H233.351v22.73ZM248.162,86.03a4.3,4.3,0,0,0-4.4-4.389h-6.417a4.428,4.428,0,0,0-4.03,4.389v9.844h14.862Z" transform="translate(-75.488 -70.039)" fill="#fff"/><path d="M172.4,70.05H157.551c-4.043,0-12.141,3.042-12.141,11.551v37.374c0,5.763,7.431,11.23,12.141,11.23H172.4c5.4,0,12.154-6.494,12.154-11.23V81.6C184.555,74.478,178.484,70.05,172.4,70.05Zm0,44.92a3.966,3.966,0,0,1-3.966,3.966h-6.866a3.966,3.966,0,0,1-3.979-3.966V85.284a3.966,3.966,0,0,1,3.979-3.966h6.9a3.966,3.966,0,0,1,3.966,3.966Z" transform="translate(-96.973 -70.05)" fill="#fff"/></g></g><g transform="translate(445.99 -168.174)"><g transform="translate(0.01 251.329)"><path d="M22.679,299.134a85.08,85.08,0,0,0,61.669,26.182c22.685,0,33.738-10.757,33.738-21.811,0-14.535-16.877-19.484-39.265-24.714-31.709-7.275-72.426-16-72.426-59.343,0-32.286,27.931-58.468,73.581-58.468,30.835,0,56.423,9.305,75.627,27.056l-22.981,30.241c-15.706-14.535-36.642-21.233-55.549-21.233s-28.508,8.15-28.508,19.781c0,13.083,16.284,17.158,38.688,22.4,31.99,7.275,72.723,16.861,72.723,59.92,0,35.487-25.308,62.247-77.656,62.247-37.236,0-64-12.506-82.309-30.835L22.695,299.15Z" transform="translate(-0.01 -160.98)" fill="#fff"/><path d="M183.167,194.89c41.888,0,70.4,31.412,70.4,77.375v8.15H149.148C151.474,298.15,165.728,313,189.584,313c13.083,0,28.508-5.23,37.517-13.958L243.384,322.9c-14.254,13.083-36.065,19.484-57.875,19.484-42.762,0-75.049-28.789-75.049-73.878,0-40.717,29.96-73.581,72.723-73.581Zm-34.613,60.5H217.78c-.874-13.38-10.179-31.116-34.613-31.116C160.186,224.273,150.3,241.431,148.554,255.388Z" transform="translate(61.979 -141.948)" fill="#fff"/><path d="M302.092,338.873V324.323c-9.6,11.35-26.182,18.032-44.5,18.032-22.4,0-48.867-15.128-48.867-46.541s26.463-44.792,48.867-44.792c18.61,0,35.19,5.823,44.5,17.158V248.7c0-14.254-12.209-23.559-30.835-23.559-15.128,0-29.086,5.527-41.014,16.58l-13.957-24.73c17.158-15.128,39.265-22.107,61.372-22.107,31.99,0,61.372,12.8,61.372,53.223v90.755H302.092Zm0-51.193c-6.1-8.15-17.736-12.209-29.664-12.209-14.551,0-26.463,7.853-26.463,21.233s11.928,20.655,26.463,20.655c11.928,0,23.559-4.075,29.664-12.209V287.7Z" transform="translate(117.132 -141.954)" fill="#fff"/></g><g transform="translate(543.369 251.032)"><path d="M451.3,160.79c40.14,0,65.447,19.484,80.279,42.466l-34.316,18.61A55.015,55.015,0,0,0,451.3,197.432c-35.19,0-60.795,27.056-60.795,63.7s25.6,63.7,60.795,63.7c17.751,0,33.457-7.275,41.888-14.832V286.439H441.418V250.952h92.488v74.175c-19.781,22.107-47.415,36.658-82.605,36.658-56.72,0-103.26-39.562-103.26-100.638S394.581,160.806,451.3,160.806Z" transform="translate(-348.04 -160.79)" fill="#fff"/><path d="M480.43,338.761V198.281h36.939v19.2c9.9-12.506,27.337-22.4,44.792-22.4v36.065a49.331,49.331,0,0,0-10.179-.874c-12.209,0-28.508,6.682-34.613,15.706v92.785H480.43Z" transform="translate(-273.737 -141.545)" fill="#fff"/><path d="M629.122,338.873V324.323c-9.6,11.35-26.182,18.032-44.5,18.032-22.388,0-48.867-15.128-48.867-46.541s26.463-44.792,48.867-44.792c18.61,0,35.19,5.823,44.5,17.158V248.7c0-14.254-12.209-23.559-30.835-23.559-15.128,0-29.086,5.527-41.014,16.58l-13.958-24.73c17.158-15.128,39.265-22.107,61.372-22.107,31.99,0,61.372,12.8,61.372,53.223v90.755H629.122Zm0-51.193c-6.1-8.15-17.736-12.209-29.664-12.209-14.551,0-26.463,7.853-26.463,21.233s11.928,20.655,26.463,20.655c11.928,0,23.559-4.075,29.664-12.209V287.7Z" transform="translate(-242.684 -141.657)" fill="#fff"/><path d="M727.844,338.862V253.931c0-19.484-10.179-26.182-25.885-26.182-14.535,0-25.885,8.15-31.99,16.58v94.533H633.03V198.382h36.939v18.329c9.024-10.757,26.182-21.811,49.163-21.811,30.834,0,45.666,17.455,45.666,44.792v99.186H727.86Z" transform="translate(-188.092 -141.646)" fill="#fff"/><path d="M749.293,316.508v-73.3H726.03V210.921h23.263V172.53h37.236v38.391h28.508v32.286H786.528v63.4c0,8.727,4.652,15.409,12.8,15.409,5.527,0,10.757-2.03,12.8-4.075l7.853,27.915c-5.527,4.949-15.409,9.024-30.834,9.024-25.885,0-39.843-13.38-39.843-38.391Z" transform="translate(-135.896 -154.201)" fill="#fff"/></g><path d="M372.161,72.707a112.6,112.6,0,0,1,14.66-5.027c22.763-5.948,47.352-7.619,69.959-.359,23.965,7.7,37.563,24.168,51.771,43.668a448.1,448.1,0,0,0,62.84,66.119c15.035,12.74,38.063,34.16,59.374,26.744,25.995-9.055,44.246-33.208,54.362-57.86,5.6-13.661,7.2-27.493,10.4-41.763,5.652-25.261,15.1-46.806,33.348-65.463C748.327,18.876,772.7,6.432,799.567.031A1.173,1.173,0,0,1,801,1.327c-1.514,9.18-7.837,19.516-11.553,27.759-11.007,24.34-24.9,47.181-35.924,71.567-13.021,28.8-26.572,54.8-51.162,75.408-4.746,3.966-9.539,7.915-14.363,11.787-2.919,2.342-6.994,6.4-11.054,9.555a1.162,1.162,0,0,0,1,2.045,194.055,194.055,0,0,1,29.695-5.043c7.775-.656,7.681,4.668,2.576,9.352-11.475,10.538-26.635,13.879-40.249,20.5-14.254,6.932-27.884,15.285-39.015,26.713-16.174,16.6-60.014,36.564-79.608,14.535a1.158,1.158,0,0,1,.859-1.9c12.615-.172,24.355-9.508,33.926-16.58,4.356-3.216,8.805-6.307,13.13-9.57,2.17-1.639,4.231-3.4,6.229-5.215s4.45-3.56,5.933-5.652a64.2,64.2,0,0,1-13.583,3.107c-13.911,1.421-26.291-.656-39.406-5.464a257.276,257.276,0,0,1-64.667-34.769c-19.125-14.395-35.206-32.271-53.02-48.18a289.762,289.762,0,0,0-41.529-31.459c-14.6-9.305-29.4-18.985-44.776-26.807a1.15,1.15,0,0,1,.062-2.092c4.356-1.873,12.787-6.183,14.192-6.791,1.14-.484,2.279-.968,3.419-1.436Z" transform="translate(198.56)" fill="#fff"/></g></g></g></svg>