<?xml version="1.0" encoding="UTF-8" standalone="no" ?>
<!DOCTYPE svg PUBLIC "-//W3C//DTD SVG 1.1//EN" "http://www.w3.org/Graphics/SVG/1.1/DTD/svg11.dtd">
<svg xmlns="http://www.w3.org/2000/svg" xmlns:xlink="http://www.w3.org/1999/xlink" version="1.1" width="640" height="640" viewBox="0 0 640 640" xml:space="preserve">
<desc>Created with Fabric.js 5.3.0</desc>
<defs>
</defs>
<g transform="matrix(4.992 0 0 4.992 319.7448370669 319.7448370669)" id="7juet_nhnpYGLcVOayMWH"  >
<path style="stroke: rgb(228,145,213); stroke-width: 0; stroke-dasharray: none; stroke-linecap: butt; stroke-dashoffset: 0; stroke-linejoin: miter; stroke-miterlimit: 4; fill: rgb(255,255,255); fill-rule: nonzero; opacity: 1;"  transform=" translate(0, 0)" d="M 0 -64.10256 C 35.38462 -64.10256 64.10256 -35.384609999999995 64.10256 0 C 64.10256 35.38462 35.384609999999995 64.10256 0 64.10256 C -35.38462 64.10256 -64.10256 35.384609999999995 -64.10256 0 C -64.10256 -35.38462 -35.384609999999995 -64.10256 0 -64.10256 z" stroke-linecap="round" />
</g>
<g transform="matrix(2.7783924593 0 0 2.7783924801 320 320)" id="vanFMIAaI08iYBNC9X5aj"  >
<g style=""   >
		<g transform="matrix(0.5467084462 0 0 0.546708372 -8.040006308 -7.2864368974)" id="Ur7B4I0HGBUKWWuWl-4AE"  >
<path style="stroke: none; stroke-width: 1; stroke-dasharray: none; stroke-linecap: butt; stroke-dashoffset: 0; stroke-linejoin: miter; stroke-miterlimit: 4; fill: rgb(84,109,125); fill-rule: nonzero; opacity: 1;"  transform=" translate(-137.9140151005, -590.1174686671)" d="M 183.64 717.56 C 181.92 708.01 182.91 701.15 186.36 691.94 Q 187.72 688.3 189.65 682.38 Q 195.52 664.29 188.19 645.3 C 180.74 625.98 167.9 610.78 147.93 605.24 Q 131.79 600.77 116.72 605.45 C 102.18 609.97 90.38 620.8 85.65 635.65 Q 84.42 639.51 83.56 648.99 C 82.14 664.52 78.27 679.58 75.71 692.47 Q 73.34 704.44 74.04 716.17 C 74.04000000000005 716.2776076020183 73.97114247628237 716.37314231292 73.86905694150425 716.4071708245127 C 73.76697140672616 716.4411993361053 73.65456456121103 716.4060860816147 73.59 716.32 C 62.29 699.76 55.32 680.32 49.98 661.28 Q 43.35 637.59 40.58 623.99 Q 38.07 611.69 40.16 596.09 C 42.64 577.62 49.86 559.27 59.26 543.01 Q 82.26 503.2 118.28 475.3 Q 122.01 472.41 128.52 468.7 C 139.36 462.54 149.99 460.8 162.11 464.36 C 173.5 467.71 183.68 475.02 191.63 483.61 C 210.81 504.31 221.84 530.78 229.47 558.82 Q 234.97 579 236.03 593.74 Q 238.41 626.74 223.14 654.13 C 215.22 668.33 202.73 682.93 195.2 693.93 Q 186.13 707.17 183.99 717.57 C 183.96833550392387 717.650429947263 183.8943166233596 717.7054895711011 183.81105398175757 717.7031106384838 C 183.7277913401555 717.7007317058667 183.65703690610826 717.641535701611 183.64 717.56 Z" stroke-linecap="round" />
</g>
		<g transform="matrix(0.5467084462 0 0 0.546708372 -10.676622672 57.9907230749)" id="XlCzcXqooPFHxgRA3BnGs"  >
<path style="stroke: none; stroke-width: 1; stroke-dasharray: none; stroke-linecap: butt; stroke-dashoffset: 0; stroke-linejoin: miter; stroke-miterlimit: 4; fill: rgb(84,109,125); fill-rule: nonzero; opacity: 1;"  transform=" translate(-133.0913049663, -709.5177985497)" d="M 115.28 799.62 Q 110.46 796.28 109.21 790.26 Q 108.55 787.14 106.69 775.28 Q 104.82 763.41 101.04 752.77 C 98.79 746.45 93.61 738.42 91.65 732.58 Q 85.51 714.23 89.79 693.98 C 92.9 679.22 96.56 665.13 97.82 648.59 Q 98.37 641.25 99.65 638.09 C 106.78 620.48 127.49 613.58 144.92 619.09 C 161.04 624.19 170 636.45 175.6 652.18 Q 180.69 666.52 175.47 680.24 C 171.97 689.45 168.78 697.72 168.38 707.94 Q 168.31 709.65 169.46 719.03 C 172.51 743.85 159.45 771.65 143.7 790.69 C 137.98 797.6 124.17 805.79 115.28 799.62 Z" stroke-linecap="round" />
</g>
		<g transform="matrix(0.5467084462 0 0 0.546708372 0 -0.2175079643)" id="QIm10-goK0ZXuhQdKvxiI"  >
<path style="stroke: none; stroke-width: 1; stroke-dasharray: none; stroke-linecap: butt; stroke-dashoffset: 0; stroke-linejoin: miter; stroke-miterlimit: 4; fill: rgb(84,109,125); fill-rule: nonzero; opacity: 1;"  transform=" translate(-152.6202197764, -603.0474497952)" d="M 25.38 613.87 C 25.378823458575393 613.9677962542982 25.307091953208975 614.0503967071363 25.210425908661144 614.0652684062976 C 25.113759864113312 614.0801401054588 25.020517540800906 614.022920241648 24.99 613.93 C 21.04 599.62 22.33 584.9 23.28 569.76 C 23.74 562.46 21.56 552.28 21.46 544.75 C 21.11 517.3 32.39 488.73 56.43 473.7 Q 56.44 473.69 69.31 465.79 Q 76.13 461.61 85.07 453.06 Q 89.34 448.97 107.89 426.65 Q 109.6 424.6 116.32 418.56 C 123.91 411.75 132.53 408.69 142.63 408.25 C 148.97 407.98 155.94 407.88 162.06 406.92 C 176.11 404.73 190.69 403.78 204.07 408.3 Q 223.5 414.87 240.02 425.66 Q 242.42 427.22 247.13 431.36 C 255.21 438.47 259.85 447.24 260.87 458.13 Q 261.92 469.17 262.81 478.2 Q 263.92 489.32 269.67 501.09 Q 273.8 509.53 274.55 511.92 Q 277.34 520.81 276.22 530.21 C 276.1750403269812 530.5517078957134 276.2531335518742 530.8960280236508 276.44 531.18 Q 280.98 538.18 282.44 547.56 C 284.53 560.98 283.88 573.59 282.58 587.5 Q 279.94 615.8 268.44 646.42 Q 249.09 697.96 220.18 742.2 C 209.83 758.03 199.38 771.54 186.23 784.22 Q 172.6 797.37 154.12 801 C 153.99360826889196 801.0198079117422 153.86803049180645 800.9599380783748 153.8038434647928 800.8492707904202 C 153.73965643777916 800.7386035024656 153.75004584676427 800.5998727011772 153.83 800.5 L 158.4 795.05 C 158.43328953960307 795.0100590507452 158.46336488161708 794.9699585947266 158.49 794.93 Q 162.79 788.19 167.86 778.87 Q 181.2 754.3 197.23 722.59 C 197.4226809142978 722.2113048995337 197.57034790609507 721.8119328080821 197.67 721.4 C 201 707.91 211.59 695.42 220.44 683.84 C 224.57 678.44 228.84 672.01 232.36 666.38 C 249.1 639.59 253.62 610.01 248.55 579.2 Q 244.57 555 235.02 529.72 Q 227.9 510.85 217.71 494.28 C 200.65 466.52 170.42 441.25 135.58 450.44 Q 126.08 452.94 114.06 461.12 Q 105.06 467.25 95.21 476.21 Q 73.87 495.62 57.52 519.5 C 41.48 542.93 29.32 568.9 25.94 596.98 Q 24.89 605.67 25.38 613.87 Z" stroke-linecap="round" />
</g>
</g>
</g>
</svg>